# xmcd CD database file
#
# Track frame offsets:
#	150
#	16260
#	37106
#	55649
#	78841
#	97487
#	121858
#	141693
#	157731
#	169225
#
# Disc length: 2542 seconds
#
# Revision: 0
# Processed by: cddbd v1.5.2PL0 Copyright (c) Steve Scherf et al.
# Submitted via: CDex 1.51
#
DISCID=8009ec0a
DTITLE=Lou Watson - Taking A Chance On Love
DYEAR=2009
DGENRE=Jazz
TTITLE0=Just The Two Of Us
TTITLE1=My Girl
TTITLE2=The Days Of Wine And Roses
TTITLE3=My Romance
TTITLE4=I Just Found Out About Love
TTITLE5=Taking A Chance On Love
TTITLE6=Send One Your Love
TTITLE7=Fools Rush In
TTITLE8=Tme After TIme
TTITLE9=Girl Talk
EXTD=YEAR: 2009
EXTT0=
EXTT1=
EXTT2=
EXTT3=
EXTT4=
EXTT5=
EXTT6=
EXTT7=
EXTT8=
EXTT9=
PLAYORDER=
